HIERARCHY
ROOT hip
{
	OFFSET 0.000000 0.000000 0.000000 
	CHANNELS 6 Xposition Yposition Zposition Xrotation Zrotation Yrotation
	JOINT abdomen
	{
		OFFSET 0.000000 3.402643 0.000000 
		CHANNELS 3 Xrotation Zrotation Yrotation
		JOINT chest
		{
			OFFSET 0.000000 8.438565 -0.680529 
			CHANNELS 3 Xrotation Zrotation Yrotation
			JOINT neck
			{
				OFFSET 0.000000 10.207942 -0.272212 
				CHANNELS 3 Xrotation Zrotation Yrotation
				JOINT head
				{
					OFFSET 0.000000 3.130431 0.000000 
					CHANNELS 3 Xrotation Zrotation Yrotation
					End Site
					{
						OFFSET 0.000000 3.130435 0.000000 
					}
				}
			}
			JOINT lCollar
			{
				OFFSET 3.470700 6.669187 -0.816635 
				CHANNELS 3 Yrotation Zrotation Xrotation
				JOINT lShldr
				{
					OFFSET 3.198488 0.000000 0.000000 
					CHANNELS 3 Zrotation Yrotation Xrotation
					JOINT lForeArm
					{
						OFFSET 10.139888 0.000000 0.000000 
						CHANNELS 3 Yrotation Zrotation Xrotation
						JOINT lHand
						{
							OFFSET 8.370511 0.000000 0.000000 
							CHANNELS 3 Zrotation Yrotation Xrotation
							End Site
							{
								OFFSET 4.083176 0.000000 0.000000 
							}
						}
					}
				}
			}
			JOINT rCollar
			{
				OFFSET -3.470700 6.669187 -0.816635 
				CHANNELS 3 Yrotation Zrotation Xrotation
				JOINT rShldr
				{
					OFFSET -3.198488 0.000000 0.000000 
					CHANNELS 3 Zrotation Yrotation Xrotation
					JOINT rForeArm
					{
						OFFSET -10.139888 0.000000 0.000000 
						CHANNELS 3 Yrotation Zrotation Xrotation
						JOINT rHand
						{
							OFFSET -8.370511 0.000000 0.000000 
							CHANNELS 3 Zrotation Yrotation Xrotation
							End Site
							{
								OFFSET -4.083176 0.000000 0.000000 
							}
						}
					}
				}
			}
		}
	}
	JOINT lThigh
	{
		OFFSET 5.308129 -1.633274 1.361059 
		CHANNELS 3 Xrotation Zrotation Yrotation
		JOINT lShin
		{
			OFFSET -2.041588 -20.007561 0.000000 
			CHANNELS 3 Xrotation Zrotation Yrotation
			JOINT lFoot
			{
				OFFSET 0.000000 -19.190928 -1.224953 
				CHANNELS 3 Xrotation Yrotation Zrotation
				End Site
				{
					OFFSET 0.000000 -2.449906 4.627600 
				}
			}
		}
	}
	JOINT rThigh
	{
		OFFSET -5.308129 -1.633274 1.361059 
		CHANNELS 3 Xrotation Zrotation Yrotation
		JOINT rShin
		{
			OFFSET 2.041588 -20.007561 0.000000 
			CHANNELS 3 Xrotation Zrotation Yrotation
			JOINT rFoot
			{
				OFFSET 0.000000 -19.190928 -1.224953 
				CHANNELS 3 Xrotation Yrotation Zrotation
				End Site
				{
					OFFSET 0.000000 -2.449906 4.627600 
				}
			}
		}
	}
}
MOTION
Frames: 18
Frame Time: 0.016667
-0.249052 48.982574 -1.229460 -12.165116 -3.603419 0.420319 32.417007 -0.263626 -1.064487 -12.578461 11.640365 -0.388789 -1.598838 3.701826 7.114985 5.050125 -11.632022 8.504317 -4.903559 -7.118305 -0.009655 -74.941933 5.957770 4.258317 -38.488964 4.276635 56.718056 -14.609122 16.993464 -4.363101 11.532983 -1.320312 -0.009566 69.744659 -14.635446 -1.432807 40.115334 -3.299708 39.408073 -3.482573 -3.529235 0.204508 -1.123401 15.449051 3.607986 29.508978 -1.166378 -2.487736 2.520767 3.946703 -12.265254 -2.820151 -1.532029 -3.652451 34.288933 0.908141 2.707999 -7.962566 -6.915195 11.096721 
-0.295137 48.976162 -1.261363 -12.132998 -3.622893 0.528141 32.455757 -0.263632 -0.996128 -12.544790 11.630683 -0.317896 -1.724800 3.693070 6.997414 5.143558 -11.577852 8.374125 -4.991451 -7.128056 -0.009653 -74.972214 5.936053 4.269107 -38.535351 4.244042 56.102135 -14.249718 17.371580 -4.345212 11.425566 -1.290997 -0.009570 69.645454 -14.605880 -1.118643 40.157372 -3.286131 39.267551 -3.375084 -3.568608 0.200187 -1.279277 15.555136 3.566391 29.538382 -1.163247 -2.488466 2.591157 3.842042 -12.270175 -2.884038 -1.460907 -3.849152 34.298332 0.908155 2.718186 -7.961720 -6.882569 11.111476 
-0.326030 48.969322 -1.287226 -12.080909 -3.652126 0.626219 32.464539 -0.224581 -0.918000 -12.563708 11.562376 -0.268108 -1.760998 3.791097 6.860999 5.229349 -11.677646 8.266979 -5.089090 -7.030384 -0.009654 -75.088066 5.978608 4.205341 -38.584263 4.245002 56.041534 -14.252736 17.409441 -4.354384 11.366970 -1.300753 -0.009572 69.719536 -14.645416 -1.051065 40.167179 -3.295855 39.406727 -3.218116 -3.442389 0.183357 -1.445429 15.647655 3.537735 29.597572 -1.156473 -2.480096 2.631631 3.717029 -12.251304 -2.992251 -1.403182 -3.951106 34.328007 0.923309 2.704597 -7.953440 -6.873007 11.094870 
-0.356921 48.962486 -1.313087 -12.019784 -3.681340 0.733419 32.463661 -0.185527 -0.839871 -12.580728 11.484301 -0.208750 -1.796997 3.889081 6.734337 5.317549 -11.777736 8.150293 -5.186728 -6.922945 -0.009655 -75.204414 6.009011 4.149405 -38.645790 4.244907 55.976025 -14.265210 17.437094 -4.364189 11.308373 -1.310509 -0.009574 69.793671 -14.685164 -0.981121 40.170761 -3.310896 39.550335 -3.061206 -3.316105 0.167216 -1.601640 15.739829 3.512111 29.655455 -1.156536 -2.502507 2.662788 3.636375 -12.268723 -3.083403 -1.346522 -4.081667 34.366695 0.923357 2.716252 -7.944983 -6.904347 11.091568 
-0.383425 48.956005 -1.332741 -11.998317 -3.700764 0.850989 32.482601 -0.156235 -0.781274 -12.551166 11.445271 -0.158956 -1.851832 3.996796 6.608366 5.456377 -12.003541 8.037668 -5.264844 -6.874104 -0.009655 -75.272179 6.042285 4.149657 -38.714897 4.237485 55.858280 -14.276175 17.445814 -4.369410 11.308366 -1.359337 -0.009573 69.869125 -14.738830 -0.981424 40.154888 -3.309348 39.665615 -2.855497 -3.209394 0.150015 -1.737893 15.815022 3.469472 29.704384 -1.153617 -2.504277 2.679385 3.521188 -12.257104 -3.130745 -1.306640 -4.229853 34.404999 0.908076 2.742887 -7.981095 -6.885266 11.098989 
-0.409927 48.949532 -1.352393 -11.966693 -3.729948 0.958816 32.491734 -0.117178 -0.732440 -12.523643 11.406226 -0.118736 -1.907842 4.104626 6.472003 5.588460 -12.229709 7.913577 -5.342962 -6.835028 -0.009654 -75.330162 6.074863 4.150870 -38.796711 4.229224 55.735619 -14.297347 17.453787 -4.380494 11.298827 -1.396484 0.000000 69.955528 -14.779926 -0.978396 40.132248 -3.319539 39.778435 -2.659622 -3.102582 0.134108 -1.855301 15.892431 3.415743 29.754482 -1.158332 -2.469079 2.708919 3.422589 -12.270427 -3.181723 -1.258988 -4.368268 34.434856 0.898280 2.731817 -8.003565 -6.875703 11.081704 
-0.429026 48.944771 -1.367104 -11.964568 -3.729812 1.076390 32.520725 -0.097649 -0.703141 -12.466849 11.347645 -0.078519 -1.605507 4.142876 6.540887 4.906716 -11.887504 8.033632 -5.362475 -6.727602 -0.009656 -75.409882 6.067983 4.230127 -38.875641 4.228399 55.686676 -14.259555 17.494627 -4.377952 11.327885 -1.437465 -0.009572 70.023293 -14.790071 -0.940101 40.055725 -3.326414 39.820786 -2.522575 -3.044357 0.124135 -1.952898 15.924154 3.341183 29.792639 -1.153522 -2.499013 2.743407 3.356513 -12.261691 -3.211443 -1.220159 -4.456754 34.454380 0.898298 2.732791 -8.012797 -6.917130 11.083998 
-0.448124 48.940018 -1.381816 -11.962440 -3.729661 1.193329 32.539856 -0.068355 -0.664074 -12.402317 11.279292 -0.047885 -1.301237 4.190728 6.619515 4.227007 -11.555395 8.144381 -5.391754 -6.620177 -0.009658 -75.489868 6.051877 4.305944 -38.967140 4.226639 55.633484 -14.221752 17.535471 -4.375356 11.347411 -1.466765 -0.009572 70.090256 -14.812744 -0.907832 39.979630 -3.327097 39.870560 -2.395304 -2.976325 0.114542 -2.050568 15.959101 3.217231 29.831892 -1.158421 -2.492494 2.775577 3.315488 -12.286354 -3.236616 -1.188750 -4.554950 34.483662 0.898329 2.734251 -8.011875 -6.957744 11.075916 
-0.465604 48.934074 -1.397057 -11.950959 -3.719716 1.320650 32.578571 -0.039060 -0.654303 -12.431518 11.171870 -0.047903 -1.180949 4.366194 6.523610 4.272953 -11.741052 8.079420 -5.430796 -6.502982 -0.009659 -75.565430 6.154727 4.313494 -39.101269 4.227996 55.612629 -14.231669 17.658529 -4.408034 11.445068 -1.457016 -0.009568 70.136452 -14.939439 -0.811199 39.916958 -3.330333 39.936390 -2.287984 -3.103387 0.114020 -2.157716 15.977930 3.151098 29.880697 -1.148668 -2.502294 2.789163 3.208683 -12.260986 -3.269165 -1.170847 -4.624868 34.523067 0.898362 2.726498 -8.022735 -6.993406 11.080839 
-0.483084 48.928131 -1.412301 -11.949833 -3.709739 1.457715 32.617294 -0.009765 -0.634767 -12.460720 11.064448 -0.047920 -1.061252 4.541714 6.427034 4.317931 -11.936422 8.014525 -5.469838 -6.385787 -0.009661 -75.651024 6.248880 4.316267 -39.240383 4.216719 55.594910 -14.231441 17.782339 -4.437751 11.542728 -1.437501 -0.009565 70.182671 -15.069537 -0.726519 39.854557 -3.340331 40.014622 -2.180650 -3.230456 0.113023 -2.275453 16.014254 3.082561 29.938635 -1.146906 -2.524255 2.827328 3.114751 -12.262115 -3.307922 -1.160870 -4.705159 34.580719 0.908059 2.751606 -8.068203 -7.048677 11.064668 
-0.500271 48.923847 -1.428564 -11.950275 -3.689926 1.624017 32.666122 -0.009765 -0.644533 -12.382621 11.093746 -0.047916 -1.055054 4.551939 6.367854 4.365919 -11.977091 7.945647 -5.421010 -6.385797 -0.009662 -75.711136 6.217720 4.331094 -39.387165 4.223431 55.595917 -14.232261 17.832067 -4.440164 11.581780 -1.505867 -0.009563 70.159317 -15.058752 -0.601189 39.743217 -3.327691 39.972412 -2.161322 -3.347599 0.116329 -2.353370 16.028782 2.991248 29.939287 -1.148740 -2.505291 2.870623 3.015154 -12.275143 -3.309118 -1.122465 -4.743045 34.591404 0.898241 2.729848 -8.080713 -7.145889 11.041407 
-0.517457 48.919567 -1.444828 -11.950606 -3.670086 1.790319 32.705299 -0.019530 -0.654300 -12.302603 11.123046 -0.038329 -1.049953 4.552456 6.309447 4.421692 -12.017474 7.888354 -5.372182 -6.385804 -0.009662 -75.781471 6.175489 4.350968 -39.526371 4.218410 55.603539 -14.236129 17.879396 -4.451588 11.620833 -1.564467 -0.009562 70.145256 -15.056983 -0.472661 39.631676 -3.327807 39.935490 -2.151782 -3.464724 0.120145 -2.450988 16.049721 2.896186 29.960253 -1.148585 -2.467412 2.900936 2.858294 -12.277754 -3.325788 -1.101907 -4.762816 34.620716 0.913631 2.726070 -8.095988 -7.264871 11.017958 
-0.527905 48.918621 -1.461928 -11.970922 -3.630657 1.976117 32.793324 -0.029295 -0.693364 -12.238104 11.142571 -0.059376 -1.076577 4.523761 6.259999 4.514104 -11.951715 7.815434 -5.323352 -6.376047 -0.009663 -75.861404 6.136428 4.361489 -39.677773 4.224661 55.625629 -14.224350 17.861225 -4.444023 11.650123 -1.603535 -0.009561 70.148743 -15.010589 -0.460341 39.457497 -3.338153 39.975815 -2.171308 -3.445165 0.120588 -2.519474 16.052979 2.832141 29.958624 -1.143889 -2.514796 2.936975 2.785327 -12.271096 -3.319034 -1.103003 -4.831099 34.620686 0.898267 2.731309 -8.138117 -7.392418 10.990696 
-0.538353 48.917667 -1.479027 -11.991596 -3.591174 2.171662 32.871468 -0.029294 -0.732427 -12.173632 11.171864 -0.078537 -1.112626 4.504849 6.201587 4.612710 -11.895314 7.754098 -5.274521 -6.356524 -0.009664 -75.931335 6.099020 4.363686 -39.825504 4.218797 55.641029 -14.211804 17.833580 -4.434182 11.669648 -1.642600 -0.009560 70.152214 -14.964195 -0.445488 39.276905 -3.341169 40.015209 -2.200595 -3.415828 0.121227 -2.596400 16.035559 2.756297 29.948502 -1.143871 -2.524004 2.973019 2.713015 -12.264652 -3.307262 -1.121531 -4.880013 34.630745 0.917914 2.718100 -8.164648 -7.501744 10.971350 
-0.544928 48.917904 -1.495072 -11.991863 -3.551685 2.357462 32.959908 -0.068353 -0.771496 -12.167933 11.289046 -0.097678 -1.165133 4.388428 6.190325 4.715423 -11.722485 7.700338 -5.206165 -6.376067 -0.009665 -76.030853 6.073446 4.405488 -39.896572 4.225348 55.643696 -14.181376 17.712009 -4.395596 11.669625 -1.779319 -0.009559 70.183472 -14.961205 -0.474696 39.125202 -3.351426 40.146683 -2.141641 -3.289086 0.113005 -2.705049 16.041172 2.689815 29.938932 -1.148734 -2.514996 3.047227 2.579406 -12.278617 -3.318479 -1.132303 -4.939882 34.650150 0.923483 2.720690 -8.168336 -7.640548 10.929263 
-0.551502 48.918140 -1.511114 -11.981677 -3.502414 2.543266 33.038628 -0.107411 -0.810564 -12.164284 11.406223 -0.128308 -1.219378 4.262372 6.170101 4.811350 -11.540187 7.635099 -5.137810 -6.395610 -0.009666 -76.120811 6.037794 4.446091 -39.968182 4.225625 55.653793 -14.143841 17.588762 -4.363183 11.669601 -1.916038 -0.009558 70.223961 -14.967291 -0.503228 38.966801 -3.360926 40.269936 -2.082712 -3.162331 0.105041 -2.773012 16.040535 2.665058 29.909279 -1.148694 -2.523205 3.125092 2.432418 -12.276173 -3.304345 -1.130139 -4.987850 34.640743 0.923470 2.710502 -8.151517 -7.777852 10.920667 
-0.551758 48.919628 -1.524020 -11.971974 -3.482411 2.719318 33.116909 -0.117176 -0.820331 -12.215228 11.464810 -0.137873 -1.181171 4.204579 6.110939 4.792940 -11.348397 7.560380 -5.147574 -6.395608 -0.009666 -76.188217 6.095360 4.471785 -40.064838 4.223916 55.654400 -14.131355 17.561094 -4.353415 11.630531 -1.964860 -0.009560 70.243484 -14.995532 -0.560436 38.831261 -3.359106 40.299755 -2.062993 -3.074532 0.100808 -2.869795 16.035866 2.618159 29.899317 -1.143816 -2.531217 3.186715 2.262402 -12.260880 -3.319002 -1.132204 -5.047686 34.620983 0.917904 2.717611 -8.146389 -7.904519 10.893911 
-0.552013 48.921116 -1.536927 -11.952481 -3.452597 2.905120 33.185429 -0.126940 -0.830098 -12.266192 11.523399 -0.149384 -1.132370 4.146695 6.061521 4.783782 -11.156529 7.485740 -5.147574 -6.395608 -0.009666 -76.245834 6.152230 4.498394 -40.157028 4.228684 55.660721 -14.119630 17.542894 -4.342982 11.601226 -2.023448 -0.009560 70.262138 -15.032924 -0.614476 38.695644 -3.357375 40.329399 -2.053046 -2.976956 0.096793 -2.977714 16.039986 2.551467 29.890265 -1.143809 -2.511303 3.247139 2.084915 -12.268824 -3.313394 -1.139473 -5.076879 34.601917 0.913603 2.705694 -8.125632 -8.040685 10.874752 
